Coordinates
version=1
nRows=17
nColumns=34
inDegrees=yes

Units are S.I. units (second, meters, Newtons, ...)
If the header above contains a line with 'inDegrees', this indicates whether rotational values are in degrees (yes) or radians (no).

endheader
time	pelvis_tilt	pelvis_list	pelvis_rotation	pelvis_tx	pelvis_ty	pelvis_tz	hip_flexion_r	hip_adduction_r	hip_rotation_r	knee_angle_r	ankle_angle_r	subtalar_angle_r	mtp_angle_r	hip_flexion_l	hip_adduction_l	hip_rotation_l	knee_angle_l	ankle_angle_l	subtalar_angle_l	mtp_angle_l	lumbar_extension	lumbar_bending	lumbar_rotation	arm_flex_r	arm_add_r	arm_rot_r	elbow_flex_r	pro_sup_r	arm_flex_l	arm_add_l	arm_rot_l	elbow_flex_l	pro_sup_l
      5.38333330	    -45.53642207	     20.65670957	     24.95786455	      0.03478311	      1.17088786	     -0.12132953	     19.33928708	    -14.83048090	     29.44017401	     33.48229268	     50.00000000	    -35.00000000	      0.00000000	     60.00942375	     30.00000025	     -7.87758263	     50.03628944	     50.00000000	    -16.62368569	      0.00000000	     22.94610476	    -53.95119832	    -24.44354294	     10.38859856	      9.90046905	     57.65620893	    150.00035077	    111.05095825	    -34.98614034	     -9.43341680	    -31.83299526	     90.28627468	     86.79452253
      5.40000000	    -45.39825930	     20.82958997	     25.05674135	      0.03339067	      1.17141485	     -0.12156672	     19.17611367	    -15.13885419	     29.31799555	     33.31028489	     50.00000000	    -35.00000000	      0.00000000	     59.50106185	     30.00000025	     -7.60842741	     50.58263655	     50.00000000	    -17.30850474	      0.00000000	     22.97048416	    -54.12139026	    -24.42707127	      9.25060264	      8.96503289	     53.24243479	    150.00035077	    110.10409126	    -34.75832754	     -9.71276196	    -31.70026065	     90.14426233	     87.00049802
      5.41666670	    -45.44956857	     20.70267979	     25.47911914	      0.03570436	      1.17173105	     -0.12210819	     19.26238330	    -15.36558853	     29.04175104	     33.27613234	     50.00000000	    -35.00000000	      0.00000000	     58.57694586	     30.00000025	     -7.18821963	     50.74546453	     50.00000000	    -17.28639616	      0.00000000	     22.47898210	    -54.16723255	    -24.51992811	      7.27423970	      7.82733725	     49.31414888	    150.00035077	    109.33003773	    -34.43788263	    -10.20806009	    -30.92824974	     90.06337171	     87.31217140
      5.43333330	    -45.45019944	     20.85584284	     25.95941522	      0.03609720	      1.17378591	     -0.12144274	     18.83488922	    -15.59586745	     28.77754332	     32.86942385	     50.00000000	    -35.00000000	      0.00000000	     57.46565069	     30.00000025	     -7.23399847	     50.66822655	     50.00000000	    -15.87261956	      0.00000000	     22.45843659	    -54.28153726	    -24.53348376	      5.33383705	      6.92539589	     45.21028689	    147.50039657	    108.56478698	    -34.17007606	    -11.00397414	    -30.22412341	     89.29244960	     87.60327347
      5.45000000	    -45.77822024	     21.04814348	     26.25141451	      0.03677916	      1.16929107	     -0.12035104	     18.35214944	    -15.58064296	     28.64315290	     32.66884267	     50.00000000	    -35.00000000	      0.00000000	     56.99785652	     30.00000025	     -7.81354573	     49.94665324	     50.00000000	    -14.43740893	      0.00000000	     23.19627280	    -54.35788559	    -24.34033181	      3.34440154	      6.16295007	     41.80432094	    143.61863745	    107.75333139	    -34.56985749	    -11.34992896	    -29.65918081	     88.89131062	     87.82262789
      5.46666670	    -46.00075458	     21.25587525	     26.50895513	      0.03410521	      1.16890581	     -0.11907662	     18.05344870	    -15.85184139	     28.62498775	     31.98549092	     50.00000000	    -35.00000000	      0.00000000	     56.54892272	     30.00000025	     -7.72496596	     49.81292058	     50.00000000	    -13.51995856	      0.00000000	     24.56764761	    -54.31127262	    -23.86349705	      1.36779421	      5.73435943	     37.90142095	    138.71328874	    105.74673788	    -34.53143703	    -11.78515311	    -29.46350188	     87.76558270	     87.99302806
      5.48333330	    -46.03736075	     21.46532933	     27.04973495	      0.03499224	      1.17111688	     -0.11902523	     17.63128678	    -16.31851109	     28.04632008	     31.50044929	     50.00000000	    -35.00000000	      0.00000000	     54.72956243	     30.00000025	     -6.86065991	     49.78095290	     50.00000000	    -13.59158770	      0.00000000	     24.18512856	    -54.46953533	    -24.91033009	     -0.40780602	      5.30566649	     35.62050649	    132.86796524	    104.84490609	    -34.84781749	    -12.63488613	    -28.76424695	     87.23069655	     88.13135854
      5.50000000	    -46.20169611	     21.66065302	     27.60884591	      0.03744843	      1.17031408	     -0.11892125	     16.93120647	    -16.57470967	     27.75449145	     30.82454750	     50.00000000	    -35.00000000	      0.00000000	     53.29743880	     30.00000025	     -6.66309142	     49.45172326	     50.00000000	    -12.42397736	      0.00000000	     24.02811450	    -54.50578133	    -25.74948334	     -2.32416707	      5.17083449	     33.63178469	    127.33364236	    103.89159300	    -35.33799369	    -13.09562762	    -28.33894812	     86.56927310	     88.21854640
      5.51666670	    -46.25088622	     21.99315291	     27.76224633	      0.03769045	      1.16646927	     -0.11773136	     16.32691072	    -16.70578535	     27.73204606	     30.36916272	     50.00000000	    -35.00000000	      0.00000000	     52.58326150	     30.00000025	     -7.05706757	     48.73494717	     50.00000000	    -11.19131466	      0.00000000	     23.93826241	    -54.59771480	    -26.05901550	     -4.12010875	      5.03399396	     31.97115833	    121.69175177	    102.88715494	    -35.91216370	    -13.28988935	    -28.15999272	     86.51123788	     88.31481882
      5.53333330	    -46.51398210	     22.31036752	     27.64614243	      0.04054392	      1.16112474	     -0.11760452	     16.25713897	    -16.85403179	     28.21716707	     30.00660002	     50.00000000	    -35.00000000	      0.00000000	     52.90900149	     30.00000025	     -7.85808416	     48.01096776	     50.00000000	    -10.21003835	      0.00000000	     25.14554232	    -54.91218920	    -26.67955697	     -5.44771258	      4.86846444	     31.94298418	    115.11082981	     95.67885599	    -37.77025187	    -11.58282773	    -30.54207468	     87.33585359	     88.94311241
      5.55000000	    -45.75708093	     22.94627450	     27.27128987	      0.04954967	      1.15919342	     -0.11674522	     15.64309805	    -17.00883588	     28.32174119	     30.01107439	     50.00000000	    -35.00000000	      0.00000000	     52.48257945	     30.00000025	     -8.44540627	     46.90470919	     50.00000000	     -8.87529817	      0.00000000	     25.01362317	    -55.28683441	    -26.86359342	     -7.99744333	      4.58180061	     30.57117522	    109.26946081	     94.11240853	    -39.51434120	    -11.63749684	    -30.70180954	     87.88982715	     89.32799545
      5.56666670	    -45.67907659	     23.10529515	     27.25905203	      0.05025424	      1.15575077	     -0.11616168	     15.73082777	    -16.86949194	     28.17958447	     30.44366860	     50.00000000	    -34.87424637	      0.00000000	     52.81993293	     30.00000025	     -9.16685667	     46.02043723	     50.00000000	     -8.03475579	      0.00000000	     25.24616327	    -55.72544499	    -27.31322730	    -10.68783520	      4.12273909	     29.91119792	    104.07023258	     93.34708116	    -40.81573268	    -11.30875465	    -31.08019545	     88.14513283	     89.58348241
      5.58333330	    -46.31843754	     23.41051537	     27.08557351	      0.04357991	      1.15061174	     -0.11582980	     15.84663143	    -16.96125193	     28.34692471	     30.55724054	     50.00000000	    -34.40553941	      0.00000000	     54.56063949	     30.00000025	    -10.85467993	     45.76007528	     50.00000000	     -7.52442460	      0.00000000	     27.88629429	    -56.82307385	    -28.52604859	    -12.48363854	      3.23660602	     31.78109283	     99.46568194	     85.26602705	    -44.18539912	     -8.76590679	    -34.70044780	     89.56934617	     93.06099991
      5.60000000	    -47.09287452	     23.94900774	     27.07327821	      0.04579089	      1.15108464	     -0.11521641	     15.30427605	    -17.89319162	     28.33010307	     29.82907177	     50.00000000	    -34.23453119	      0.00000000	     54.97216250	     30.00000025	    -11.48238094	     47.11284438	     50.00000000	     -8.65510054	      0.00000000	     30.97920936	    -57.57227077	    -26.79913143	    -15.27377253	      2.64276521	     31.65878974	     95.10330612	     83.86840080	    -44.85972350	     -9.07014204	    -34.74079049	     89.22618300	     93.93971041
      5.61666670	    -47.65223276	     24.02489033	     27.54309242	      0.04487616	      1.15177212	     -0.11470628	     15.38172358	    -18.43574604	     28.23412720	     29.51106951	     50.00000000	    -34.65684753	      0.00000000	     54.40157966	     30.00000025	    -10.83082573	     48.06708431	     50.00000000	     -9.89363855	      0.00000000	     31.83608470	    -58.17529384	    -27.42834263	    -18.05714671	      2.06004543	     31.11322182	     91.68938632	     83.53728826	    -45.98310340	     -9.09283464	    -34.80137561	     88.97662354	     94.18582896
      5.63333330	    -48.46552813	     23.33319667	     28.08054963	      0.05430016	      1.14651380	     -0.11410878	     15.30517433	    -18.21227923	     28.06977266	     29.22722175	     50.00000000	    -35.00000000	      0.00000000	     52.95785975	     30.00000025	     -9.21676177	     48.52868077	     50.00000000	    -11.42865293	      0.00000000	     33.32421915	    -58.17713671	    -27.52426737	    -20.53841947	      1.38525215	     30.25879812	     87.95137876	     83.21118905	    -47.18389605	     -8.67067575	    -35.13509830	     88.51956932	     94.50199823
      5.65000000	    -49.17520378	     22.78634575	     28.47738556	      0.05318743	      1.15763869	     -0.11303991	     16.04439013	    -17.92914944	     27.97713289	     29.22859719	     50.00000000	    -35.00000000	      0.00000000	     52.26351870	     30.00000025	     -8.11779020	     48.45264757	     50.00000000	    -12.28458394	      0.00000000	     34.01851899	    -58.09121863	    -27.51920505	    -21.48390368	      1.30529341	     29.11987247	     81.79682877	     82.89063578	    -47.56420526	     -8.46974589	    -35.60255893	     87.52901062	     94.87431334
